<?xml version="1.0" encoding="UTF-8" standalone="no"?>
<!DOCTYPE svg PUBLIC "-//W3C//DTD SVG 1.1//EN" "http://www.w3.org/Graphics/SVG/1.1/DTD/svg11.dtd">
<svg width="100%" height="100%" viewBox="0 0 555 555" version="1.1" xmlns="http://www.w3.org/2000/svg" xmlns:xlink="http://www.w3.org/1999/xlink" xml:space="preserve" xmlns:serif="http://www.serif.com/" style="fill-rule:evenodd;clip-rule:evenodd;stroke-linejoin:round;stroke-miterlimit:2;">
    <rect id="Page-30" serif:id="Page 30" x="0" y="0" width="555" height="555" style="fill:none;"/>
    <g id="N_O">
        <path d="M274.383,67.144C240.742,67.144 209.117,80.248 185.329,104.035L161.762,127.602L185.329,151.173L228.304,194.144L211.662,191.977C202.817,190.827 193.808,190.244 184.892,190.244C129.583,190.244 77.575,211.785 38.454,250.906L14.887,274.473L38.454,298.044L191.25,450.84C215.121,474.706 246.862,487.856 280.617,487.856C314.375,487.856 346.112,474.706 369.983,450.84L393.558,427.269L327.529,361.24L343.358,363.29C352.15,364.427 361.1,365.002 369.958,365.002C425.329,365.002 477.387,343.44 516.542,304.281L540.112,280.71L363.433,104.031C339.646,80.244 308.021,67.144 274.383,67.144M274.383,100.477C298.079,100.477 321.779,109.519 339.862,127.602L492.971,280.71C460.142,313.544 415.792,331.669 369.958,331.669C362.542,331.669 355.087,331.194 347.633,330.231L234.779,315.635L346.412,427.269C328.246,445.435 304.429,454.523 280.617,454.523C256.804,454.523 232.987,445.435 214.821,427.269L62.025,274.473C94.821,241.677 139.117,223.577 184.892,223.577C192.354,223.577 199.854,224.056 207.358,225.035L321.158,239.86L208.9,127.602C226.983,109.519 250.683,100.477 274.383,100.477" style="fill:rgb(35,31,32);fill-rule:nonzero;"/>
    </g>
</svg>
