<svg width="48" height="48" viewBox="0 0 24 24" fill="none" xmlns="http://www.w3.org/2000/svg">
<g filter="url(#filter0_d_212_2)">
<path d="M12 2L12 19" stroke="white" stroke-width="4"/>
<path d="M9.08578 4.91422L11.8586 2.14142C11.9367 2.06332 12.0633 2.06332 12.1414 2.14142L15 5" stroke="white" stroke-width="4" stroke-linecap="round"/>
<path d="M14.9142 16L12.1414 18.7728C12.0633 18.8509 11.9367 18.8509 11.8586 18.7728L9 15.9142" stroke="white" stroke-width="4" stroke-linecap="round"/>
</g>
<line x1="12" y1="2" x2="12" y2="19" stroke="#0882FC" stroke-width="2"/>
<path d="M9.08578 4.91422L11.8586 2.14142C11.9367 2.06332 12.0633 2.06332 12.1414 2.14142L15 5" stroke="#0882FC" stroke-width="2" stroke-linecap="round"/>
<path d="M14.9142 16L12.1414 18.7728C12.0633 18.8509 11.9367 18.8509 11.8586 18.7728L9 15.9142" stroke="#0882FC" stroke-width="2" stroke-linecap="round"/>
<defs>
<filter id="filter0_d_212_2" x="6" y="0.0828552" width="12" height="23.7485" filterUnits="userSpaceOnUse" color-interpolation-filters="sRGB">
<feFlood flood-opacity="0" result="BackgroundImageFix"/>
<feColorMatrix in="SourceAlpha" type="matrix" values="0 0 0 0 0 0 0 0 0 0 0 0 0 0 0 0 0 0 127 0" result="hardAlpha"/>
<feOffset dy="2"/>
<feGaussianBlur stdDeviation="0.5"/>
<feComposite in2="hardAlpha" operator="out"/>
<feColorMatrix type="matrix" values="0 0 0 0 0.00276042 0 0 0 0 0.26666 0 0 0 0 0.6625 0 0 0 0.25 0"/>
<feBlend mode="normal" in2="BackgroundImageFix" result="effect1_dropShadow_212_2"/>
<feBlend mode="normal" in="SourceGraphic" in2="effect1_dropShadow_212_2" result="shape"/>
</filter>
</defs>
</svg>
