<svg version="1" xmlns="http://www.w3.org/2000/svg" width="348" height="348" viewBox="0 0 261.000000 261.000000"><path d="M120.9 33c-14 2.2-24.2 7.7-36.1 19.7L76.5 61l14.8 14.8L106 90.5H88.2c-16.4.1-18.4.3-26.7 2.8-18.6 5.7-28.3 11.6-43.3 26.1l-10.3 10 41.8 41.9c24.1 24.1 44.7 44 48.7 46.8 12.5 8.9 29.9 12.6 44.6 9.5 11.7-2.4 22.2-8.2 32.3-17.6 4.8-4.5 8.7-8.7 8.7-9.3 0-.7-6.6-7.9-14.7-16l-14.8-14.8 5 .7c7.3 1.2 24.1.9 31-.5 21-4.2 36.8-12.8 54.1-29.4l8.5-8.2-45.3-45.1c-43.3-43.2-45.6-45.3-52.8-48.7-11.5-5.3-23.4-7.3-34.1-5.7zm22.3 17.8c3.1 1.1 7.6 3.4 10 5 2.4 1.7 20.7 19.5 40.8 39.7l36.5 36.6-4.7 4.2c-12.6 11.3-30.1 18.2-48.3 19.3-7 .4-15.3-.4-37.5-3.4-15.7-2.1-28.7-3.7-29-3.5-.2.2 11.2 12 25.4 26.2l25.8 25.8-3.2 2.7c-9.8 8.2-25.1 11.6-37.5 8.2-10.6-2.8-12.9-4.7-52.2-43.9-21.1-21-38.3-38.5-38.3-38.9 0-1 11-9.6 15.8-12.3 6.1-3.5 16.3-7.4 23.2-9 10.3-2.3 24.1-1.8 53 2 14.6 1.9 26.7 3.5 27 3.5.3 0-11.2-11.7-25.5-26.1l-26-26 3.5-3c10.8-9.2 27.2-12 41.2-7.1z"/></svg>