<svg width="24" height="24" viewBox="0 0 24 24" fill="none" xmlns="http://www.w3.org/2000/svg">
<path fill-rule="evenodd" clip-rule="evenodd" d="M18.75 6.09673C18.75 5.47432 18.451 4.87732 17.9183 4.43698C17.3855 3.99663 16.6633 3.75 15.9114 3.75H5.09004C4.33674 3.75 3.61452 3.99663 3.08174 4.43698C2.54895 4.87732 2.25 5.47432 2.25 6.09673V14.9036C2.25 15.526 2.54895 16.1219 3.08174 16.5623C3.61452 17.0026 4.33674 17.2492 5.09004 17.2492H15.9114C16.6633 17.2492 17.3855 17.0026 17.9183 16.5623C18.451 16.1219 18.75 15.526 18.75 14.9036V6.09673Z" stroke="black" stroke-width="1.5" stroke-miterlimit="1.5" stroke-linecap="round" stroke-linejoin="round"/>
<path d="M21.75 6.75V17.8495C21.75 18.4864 21.4965 19.0964 21.0465 19.5468C20.5965 19.9972 19.986 20.25 19.35 20.25H8.25" stroke="black" stroke-width="1.5" stroke-miterlimit="1.5" stroke-linecap="round" stroke-linejoin="round"/>
<path d="M15.75 6.75L11.4438 10.6717C11.0786 11.0043 10.5252 11.0204 10.1413 10.7096L5.25 6.75" stroke="black" stroke-width="1.5" stroke-linecap="round"/>
</svg>
