<svg width="16" height="16" viewBox="0 0 16 16" fill="none" xmlns="http://www.w3.org/2000/svg">
<path fill-rule="evenodd" clip-rule="evenodd" d="M12.5 4.06449C12.5 3.64955 12.3007 3.25155 11.9455 2.95798C11.5903 2.66442 11.1088 2.5 10.6076 2.5H3.39336C2.89116 2.5 2.40968 2.66442 2.05449 2.95798C1.6993 3.25155 1.5 3.64955 1.5 4.06449V9.93572C1.5 10.3507 1.6993 10.748 2.05449 11.0415C2.40968 11.3351 2.89116 11.4995 3.39336 11.4995H10.6076C11.1088 11.4995 11.5903 11.3351 11.9455 11.0415C12.3007 10.748 12.5 10.3507 12.5 9.93572V4.06449Z" stroke="black" stroke-width="0.993807" stroke-miterlimit="1.5" stroke-linecap="round" stroke-linejoin="round"/>
<path d="M14.5 4.5V11.8996C14.5 12.3243 14.331 12.7309 14.031 13.0312C13.731 13.3315 13.324 13.5 12.9 13.5H5.5" stroke="black" stroke-width="0.985942" stroke-miterlimit="1.5" stroke-linecap="round" stroke-linejoin="round"/>
<path d="M10.5 4.5L7.84087 6.92171C7.47565 7.25432 6.92229 7.27042 6.53834 6.95961L3.5 4.5" stroke="black" stroke-linecap="round"/>
</svg>
