<svg width="48" height="48" viewBox="0 0 24 24" fill="none" xmlns="http://www.w3.org/2000/svg">
<g filter="url(#filter0_d_212_30)">
<path d="M18.0104 16.5104L5.98962 4.48959" stroke="white" stroke-width="4"/>
<path d="M18.0104 12.3891L18.0104 16.3104C18.0104 16.4209 17.9209 16.5104 17.8104 16.5104L13.7678 16.5104" stroke="white" stroke-width="4" stroke-linecap="round"/>
<path d="M6.05026 8.67159L6.05026 4.75026C6.05026 4.63981 6.13981 4.55026 6.25026 4.55026L10.2929 4.55026" stroke="white" stroke-width="4" stroke-linecap="round"/>
</g>
<line x1="18.0104" y1="16.5104" x2="5.98961" y2="4.4896" stroke="#0882FC" stroke-width="2"/>
<path d="M18.0104 12.3891L18.0104 16.3104C18.0104 16.4209 17.9209 16.5104 17.8104 16.5104L13.7678 16.5104" stroke="#0882FC" stroke-width="2" stroke-linecap="round"/>
<path d="M6.05026 8.67159L6.05026 4.75026C6.05026 4.63981 6.13981 4.55026 6.25026 4.55026L10.2929 4.55026" stroke="#0882FC" stroke-width="2" stroke-linecap="round"/>
<defs>
<filter id="filter0_d_212_30" x="3.05026" y="2.55026" width="17.9602" height="18.9601" filterUnits="userSpaceOnUse" color-interpolation-filters="sRGB">
<feFlood flood-opacity="0" result="BackgroundImageFix"/>
<feColorMatrix in="SourceAlpha" type="matrix" values="0 0 0 0 0 0 0 0 0 0 0 0 0 0 0 0 0 0 127 0" result="hardAlpha"/>
<feOffset dy="2"/>
<feGaussianBlur stdDeviation="0.5"/>
<feComposite in2="hardAlpha" operator="out"/>
<feColorMatrix type="matrix" values="0 0 0 0 0.00276042 0 0 0 0 0.26666 0 0 0 0 0.6625 0 0 0 0.25 0"/>
<feBlend mode="normal" in2="BackgroundImageFix" result="effect1_dropShadow_212_30"/>
<feBlend mode="normal" in="SourceGraphic" in2="effect1_dropShadow_212_30" result="shape"/>
</filter>
</defs>
</svg>
