<svg width="24" height="24" viewBox="0 0 24 24" fill="none" xmlns="http://www.w3.org/2000/svg">
<g filter="url(#filter0_d_212_12)">
<path d="M20.5 10.5L3.5 10.5" stroke="white" stroke-width="4"/>
<path d="M17.5858 7.58578L20.3586 10.3586C20.4367 10.4367 20.4367 10.5633 20.3586 10.6414L17.5 13.5" stroke="white" stroke-width="4" stroke-linecap="round"/>
<path d="M6.5 13.4142L3.72721 10.6414C3.6491 10.5633 3.6491 10.4367 3.72721 10.3586L6.58579 7.5" stroke="white" stroke-width="4" stroke-linecap="round"/>
</g>
<line x1="20.5" y1="10.5" x2="3.5" y2="10.5" stroke="#0882FC" stroke-width="2"/>
<path d="M17.5858 7.58578L20.3586 10.3586C20.4367 10.4367 20.4367 10.5633 20.3586 10.6414L17.5 13.5" stroke="#0882FC" stroke-width="2" stroke-linecap="round"/>
<path d="M6.5 13.4142L3.72721 10.6414C3.6491 10.5633 3.6491 10.4367 3.72721 10.3586L6.58579 7.5" stroke="#0882FC" stroke-width="2" stroke-linecap="round"/>
<defs>
<filter id="filter0_d_212_12" x="0.66864" y="5.5" width="22.7485" height="13" filterUnits="userSpaceOnUse" color-interpolation-filters="sRGB">
<feFlood flood-opacity="0" result="BackgroundImageFix"/>
<feColorMatrix in="SourceAlpha" type="matrix" values="0 0 0 0 0 0 0 0 0 0 0 0 0 0 0 0 0 0 127 0" result="hardAlpha"/>
<feOffset dy="2"/>
<feGaussianBlur stdDeviation="0.5"/>
<feComposite in2="hardAlpha" operator="out"/>
<feColorMatrix type="matrix" values="0 0 0 0 0.00276042 0 0 0 0 0.26666 0 0 0 0 0.6625 0 0 0 0.25 0"/>
<feBlend mode="normal" in2="BackgroundImageFix" result="effect1_dropShadow_212_12"/>
<feBlend mode="normal" in="SourceGraphic" in2="effect1_dropShadow_212_12" result="shape"/>
</filter>
</defs>
</svg>
