<?xml version="1.0" standalone="no"?>
<!DOCTYPE svg PUBLIC "-//W3C//DTD SVG 20010904//EN"
 "http://www.w3.org/TR/2001/REC-SVG-20010904/DTD/svg10.dtd">
<svg version="1.0" xmlns="http://www.w3.org/2000/svg"
 width="700.000000pt" height="700.000000pt" viewBox="0 0 700.000000 700.000000"
 preserveAspectRatio="xMidYMid meet">
<metadata>
Created by potrace 1.14, written by Peter Selinger 2001-2017
</metadata>
<g transform="translate(0.000000,700.000000) scale(0.100000,-0.100000)"
fill="#000000" stroke="none">
<path d="M3296 6130 c-199 -23 -364 -72 -541 -160 -180 -90 -284 -170 -510
-392 l-200 -197 415 -416 c228 -228 410 -415 405 -415 -6 0 -82 9 -170 21
-203 26 -506 28 -680 4 -491 -65 -928 -252 -1315 -562 -47 -37 -177 -159 -290
-270 l-205 -202 1110 -1111 c611 -611 1146 -1142 1190 -1179 204 -174 425
-285 691 -347 111 -26 134 -28 334 -29 237 0 313 10 490 67 278 89 439 196
733 487 l198 195 -413 414 -413 414 50 -6 c261 -34 329 -38 540 -33 251 5 368
21 591 77 345 88 695 262 974 486 95 76 500 472 500 489 0 6 -514 524 -1142
1151 -813 811 -1169 1160 -1232 1207 -204 151 -433 249 -681 292 -112 19 -325
27 -429 15z m341 -425 c184 -30 376 -110 513 -214 36 -28 511 -496 1055 -1041
l990 -991 -60 -56 c-155 -143 -339 -268 -540 -364 -406 -195 -815 -253 -1320
-185 -395 53 -1276 166 -1293 166 -9 0 291 -308 681 -698 l698 -698 -33 -31
c-116 -110 -324 -225 -488 -267 -374 -99 -761 -12 -1057 237 -43 36 -508 496
-1033 1022 l-955 955 55 50 c386 349 833 542 1340 582 198 15 280 8 1117 -102
380 -49 700 -90 710 -90 11 0 -254 272 -680 698 -383 383 -697 700 -697 704 0
9 143 123 195 156 142 90 302 147 495 176 63 9 223 5 307 -9z"/>
</g>
</svg>
